# xmcd
#
# Track frame offsets: 
#        150
#        30901
#        54226
#        71027
#        93603
#        115579
#        132905
#        154506
#        167107
#        186607
#        206033
#        229209
#
# Disc length: 3276 seconds
#
# Revision: 2
# Processed by: cddbd v1.5.2PL0 Copyright (c) Steve Scherf et al.
# Submitted via: ExactAudioCopy v1.1
#
DISCID=a20cca0c
DTITLE=Jimmy Webb - Twighlight Of The Renegades
DYEAR=2005
DGENRE=Singer-Songwriter
TTITLE0=Paul Gauguin In The South Seas
TTITLE1=Skywriter
TTITLE2=Why Do I Have To...
TTITLE3=Class Clown
TTITLE4=Spanish Radio
TTITLE5=Time Flies
TTITLE6=How Quickly
TTITLE7=High Rent Ghetto
TTITLE8=She Moves
TTITLE9=Just Like Marilyn
TTITLE10=No Signs Of Age
TTITLE11=Driftwood
EXTD=
EXTT0=
EXTT1=
EXTT2=
EXTT3=
EXTT4=
EXTT5=
EXTT6=
EXTT7=
EXTT8=
EXTT9=
EXTT10=
EXTT11=
PLAYORDER=
